<?xml version="1.0" encoding="UTF-8" standalone="no"?>
<!-- Generator: Adobe Illustrator 19.0.0, SVG Export Plug-In . SVG Version: 6.00 Build 0)  -->

<svg
   xmlns:dc="http://purl.org/dc/elements/1.1/"
   xmlns:cc="http://creativecommons.org/ns#"
   xmlns:rdf="http://www.w3.org/1999/02/22-rdf-syntax-ns#"
   xmlns:svg="http://www.w3.org/2000/svg"
   xmlns="http://www.w3.org/2000/svg"
   xmlns:sodipodi="http://sodipodi.sourceforge.net/DTD/sodipodi-0.dtd"
   xmlns:inkscape="http://www.inkscape.org/namespaces/inkscape"
   version="1.1"
   id="Layer_1"
   x="0px"
   y="0px"
   viewBox="0 0 501.65626 495.00233"
   xml:space="preserve"
   sodipodi:docname="wheel_settings_013.svg"
   inkscape:version="0.92.3 (unknown)"
   width="501.65625"
   height="495.00232"><metadata
   id="metadata1027"><rdf:RDF><cc:Work
       rdf:about=""><dc:format>image/svg+xml</dc:format><dc:type
         rdf:resource="http://purl.org/dc/dcmitype/StillImage" /><dc:title></dc:title></cc:Work></rdf:RDF></metadata><defs
   id="defs1025" /><sodipodi:namedview
   pagecolor="#ffffff"
   bordercolor="#666666"
   borderopacity="1"
   objecttolerance="10"
   gridtolerance="10"
   guidetolerance="10"
   inkscape:pageopacity="0"
   inkscape:pageshadow="2"
   inkscape:window-width="1920"
   inkscape:window-height="992"
   id="namedview1023"
   showgrid="false"
   inkscape:zoom="1.3628191"
   inkscape:cx="224.45318"
   inkscape:cy="215.26841"
   inkscape:window-x="0"
   inkscape:window-y="24"
   inkscape:window-maximized="1"
   inkscape:current-layer="Layer_1"
   fit-margin-top="0"
   fit-margin-left="0"
   fit-margin-right="0"
   fit-margin-bottom="0" />
<g
   id="g990"
   transform="translate(0,-1.95)">
	<g
   id="g988">
		<g
   id="g986">
			<path
   d="m 469.1,182.95 h -38.2 c -3.1,-8.3 -6.2,-16.6 -10.3,-23.8 l 26.9,-26.9 c 8.3,-8.2 8.3,-20.6 0,-28.9 l -60,-60 c -8.2,-8.3 -20.6,-8.3 -28.9,0 l -27.9,27.9 c -7.2,-3.1 -15.5,-6.2 -22.7,-9.3 v -39.3 c 0,-11.4 -9.3,-20.7 -20.7,-20.7 h -84.8 c -11.4,0 -20.7,9.3 -20.7,20.7 v 37.1 c -8.2,3.1 -15.5,6.2 -22.7,9.3 l -27.9,-27.9 c -8.2,-8.3 -20.6,-8.3 -28.9,0 l -60,60 c -8.3,8.2 -8.3,20.6 0,28.9 l 26.9,26.9 c -4.1,8.3 -7.2,15.5 -10.3,23.8 H 20.7 c -11.4,0 -20.7,9.3 -20.7,20.7 v 84.8 c 0,11.4 9.3,20.7 20.7,20.7 h 35.1 c 3.1,8.3 6.2,16.5 10.3,24.8 l -25.8,25.8 c -4.1,4.1 -11.6,16.3 0,28.9 l 60,60 c 8.2,8.3 20.6,8.3 28.9,0 l 24.8,-24.8 c 8.2,5.2 16.5,8.3 25.8,11.4 v 34.1 c 0,11.4 9.3,20.7 20.7,20.7 h 84.8 c 11.4,0 20.7,-9.3 19.7,-18.5 v -34.1 c 8.2,-3.1 17.5,-7.3 25.8,-11.4 l 24.8,24.8 c 8.2,8.3 20.6,8.3 28.9,0 l 60,-60 c 8.3,-8.2 8.3,-20.6 0,-28.9 l -25.8,-25.8 c 4.1,-8.3 7.2,-16.5 10.3,-24.8 h 40.1 c 11.4,0 20.7,-9.3 20.7,-20.7 v -84.8 c 0,-11.4 -9.3,-20.7 -20.7,-20.7 z m -23.5,83.8 h -31 c -9.3,0 -17.5,6.2 -19.6,15.5 -4.2,15.5 -9.3,30 -17.6,43.4 -5.2,8.3 -3.1,18.6 3.1,24.8 l 21.7,21.7 -31,31 -20.7,-20.7 c -6.2,-7.2 -16.5,-8.3 -24.8,-3.1 -14.5,8.3 -29,14.5 -44.5,18.6 -9.3,2 -15.5,10.3 -15.5,19.6 v 30 h -44.5 v -0.1 h -1 v -30 c 0,-9.3 -6.2,-17.5 -15.5,-19.6 -15.6,-4.1 -31.1,-10.3 -44.5,-18.6 -8.3,-5.2 -18.6,-3.1 -24.8,3.1 l -20.7,20.7 -31,-31 21.7,-21.7 c 6.2,-7.2 8.3,-16.5 3.1,-24.8 -8.3,-13.4 -14.5,-27.9 -17.6,-43.4 -2,-9.3 -10.3,-15.5 -19.6,-15.5 h -31 v -44.5 h 33.1 c 9.3,0 17.5,-6.2 19.6,-15.5 3.1,-14.5 9.3,-28 17.6,-41.4 5.2,-8.3 3.1,-18.6 -3.1,-24.8 l -23.8,-23.8 31,-31 23.8,23.8 c 7.2,6.2 16.5,8.3 24.8,3.1 13.5,-7.2 26.9,-13.4 41.4,-16.5 9.3,-2 15.5,-10.3 15.5,-19.6 v -34.1 h 44.5 v 35.2 c 0,9.3 6.2,17.5 15.5,19.6 14.5,3.1 29,9.3 41.4,16.5 8.3,5.2 18.6,3.1 24.8,-3.1 l 24.8,-24.8 31,31 -23.8,23.8 c -7.2,6.2 -8.3,16.5 -3.1,24.8 7.3,12.5 13.5,26.9 17.6,41.4 2,9.3 10.3,15.5 19.6,15.5 h 33.1 z"
   id="path982"
   inkscape:connector-curvature="0" />
			<path
   d="m 242.9,132.25 c -62,0 -112.7,50.7 -112.7,112.7 0,62 50.7,112.7 112.7,112.7 62.1,0 112.7,-50.7 112.7,-112.7 0,-62 -50.7,-112.7 -112.7,-112.7 z m 0,185.1 c -39.3,0 -72.4,-32.1 -72.4,-72.4 0,-39.3 32.1,-72.4 72.4,-72.4 40.3,0 72.4,32.1 72.4,72.4 0,39.3 -33.1,72.4 -72.4,72.4 z"
   id="path984"
   inkscape:connector-curvature="0" />
		</g>
	</g>
</g>
<g
   id="g992"
   transform="translate(-2.1700378,-6.9473236)">
</g>
<g
   id="g994"
   transform="translate(-2.1700378,-6.9473236)">
</g>
<g
   id="g996"
   transform="translate(-2.1700378,-6.9473236)">
</g>
<g
   id="g998"
   transform="translate(-2.1700378,-6.9473236)">
</g>
<g
   id="g1000"
   transform="translate(-2.1700378,-6.9473236)">
</g>
<g
   id="g1002"
   transform="translate(-2.1700378,-6.9473236)">
</g>
<g
   id="g1004"
   transform="translate(-2.1700378,-6.9473236)">
</g>
<g
   id="g1006"
   transform="translate(-2.1700378,-6.9473236)">
</g>
<g
   id="g1008"
   transform="translate(-2.1700378,-6.9473236)">
</g>
<g
   id="g1010"
   transform="translate(-2.1700378,-6.9473236)">
</g>
<g
   id="g1012"
   transform="translate(-2.1700378,-6.9473236)">
</g>
<g
   id="g1014"
   transform="translate(-2.1700378,-6.9473236)">
</g>
<g
   id="g1016"
   transform="translate(-2.1700378,-6.9473236)">
</g>
<g
   id="g1018"
   transform="translate(-2.1700378,-6.9473236)">
</g>
<g
   id="g1020"
   transform="translate(-2.1700378,-6.9473236)">
</g>
<path
   style="fill:#ffffff;fill-opacity:1;stroke:#000300;stroke-width:12.375;stroke-linecap:round;stroke-linejoin:round;stroke-miterlimit:4;stroke-dasharray:none;stroke-opacity:1"
   d="m 457.02981,469.09727 c 5.1785,5.1249 13.54237,5.14305 18.75717,-0.0536 5.1249,-5.17852 5.1612,-13.54237 0,-18.68542 -5.1612,-5.14305 -13.52497,-5.17853 -18.70357,-0.0181 -5.1612,5.17935 -5.1612,13.56135 -0.054,18.7572 z m -162.15709,-135.8709 -82.0215,-0.231 -22.4037,-83.81917 8.89763,-8.98673 44.50792,44.61435 43.52865,-43.49317 -44.5434,-44.56073 8.89763,-8.95125 83.8365,22.49363 0.2673,79.72552 0.48015,-0.48015 m 0,0 150.87358,148.4703 -0.1601,0.19553 c 11.3363,11.72737 11.3363,30.37732 -0.231,41.89185 -11.4964,11.6028 -30.18177,11.65642 -41.9273,0.28462 l -0.1782,0.231 -149.82416,-147.3846"
   id="path2-3"
   inkscape:connector-curvature="0"
   sodipodi:nodetypes="ccccccccscccccccccccc" /><circle
   style="opacity:1;fill:#000000;fill-opacity:1;stroke:none;stroke-width:15;stroke-linecap:round;stroke-linejoin:round;stroke-miterlimit:4;stroke-dasharray:none;stroke-dashoffset:0;stroke-opacity:1"
   id="path4586"
   cx="244.89999"
   cy="242.95"
   r="18.100227" /></svg>